ISO-10303-21;
HEADER;
/* Generated by software containing ST-Developer
 * from STEP Tools, Inc. (www.steptools.com) 
 */

FILE_DESCRIPTION(
/* description */ (''),
/* implementation_level */ '2;1');

FILE_NAME(
/* name */ 'DC Buzzer v1.step',
/* time_stamp */ '2025-09-03T15:04:07+05:30',
/* author */ (''),
/* organization */ (''),
/* preprocessor_version */ 'ST-DEVELOPER v20.1',
/* originating_system */ 'Autodesk Translation Framework v14.10.0.0',
/* authorisation */ '');

FILE_SCHEMA (('AUTOMOTIVE_DESIGN { 1 0 10303 214 3 1 1 }'));
ENDSEC;

DATA;
#10=MECHANICAL_DESIGN_GEOMETRIC_PRESENTATION_REPRESENTATION('',(#13,#14,
#15),#517);
#11=SHAPE_REPRESENTATION_RELATIONSHIP('SRR','None',#524,#12);
#12=ADVANCED_BREP_SHAPE_REPRESENTATION('',(#16,#17,#18),#516);
#13=STYLED_ITEM('',(#534),#16);
#14=STYLED_ITEM('',(#535),#17);
#15=STYLED_ITEM('',(#535),#18);
#16=MANIFOLD_SOLID_BREP('Body1',#282);
#17=MANIFOLD_SOLID_BREP('Body2',#283);
#18=MANIFOLD_SOLID_BREP('Body3',#284);
#19=FACE_BOUND('',#80,.T.);
#20=TOROIDAL_SURFACE('',#319,9.,1.);
#21=CIRCLE('',#300,17.2229630316566);
#22=CIRCLE('',#301,17.2229630316566);
#23=CIRCLE('',#303,10.);
#24=CIRCLE('',#306,17.2229630316567);
#25=CIRCLE('',#307,17.2229630316567);
#26=CIRCLE('',#309,10.);
#27=CIRCLE('',#311,10.);
#28=CIRCLE('',#313,10.);
#29=CIRCLE('',#314,10.);
#30=CIRCLE('',#316,3.00000004470348);
#31=CIRCLE('',#317,3.00000004470348);
#32=CIRCLE('',#320,9.);
#33=CIRCLE('',#321,1.);
#34=CIRCLE('',#322,10.);
#35=CIRCLE('',#323,10.);
#36=CIRCLE('',#325,10.);
#37=CIRCLE('',#329,1.00000001490116);
#38=CIRCLE('',#330,1.00000001490116);
#39=CIRCLE('',#334,1.);
#40=CIRCLE('',#335,1.);
#41=CYLINDRICAL_SURFACE('',#299,17.2229630316566);
#42=CYLINDRICAL_SURFACE('',#305,17.2229630316567);
#43=CYLINDRICAL_SURFACE('',#315,3.00000004470348);
#44=CYLINDRICAL_SURFACE('',#324,10.);
#45=CYLINDRICAL_SURFACE('',#328,1.00000001490116);
#46=CYLINDRICAL_SURFACE('',#333,1.);
#47=FACE_OUTER_BOUND('',#67,.T.);
#48=FACE_OUTER_BOUND('',#68,.T.);
#49=FACE_OUTER_BOUND('',#69,.T.);
#50=FACE_OUTER_BOUND('',#70,.T.);
#51=FACE_OUTER_BOUND('',#71,.T.);
#52=FACE_OUTER_BOUND('',#72,.T.);
#53=FACE_OUTER_BOUND('',#73,.T.);
#54=FACE_OUTER_BOUND('',#74,.T.);
#55=FACE_OUTER_BOUND('',#75,.T.);
#56=FACE_OUTER_BOUND('',#76,.T.);
#57=FACE_OUTER_BOUND('',#77,.T.);
#58=FACE_OUTER_BOUND('',#78,.T.);
#59=FACE_OUTER_BOUND('',#79,.T.);
#60=FACE_OUTER_BOUND('',#81,.T.);
#61=FACE_OUTER_BOUND('',#82,.T.);
#62=FACE_OUTER_BOUND('',#83,.T.);
#63=FACE_OUTER_BOUND('',#84,.T.);
#64=FACE_OUTER_BOUND('',#85,.T.);
#65=FACE_OUTER_BOUND('',#86,.T.);
#66=FACE_OUTER_BOUND('',#87,.T.);
#67=EDGE_LOOP('',(#177,#178,#179,#180));
#68=EDGE_LOOP('',(#181,#182,#183,#184));
#69=EDGE_LOOP('',(#185,#186,#187));
#70=EDGE_LOOP('',(#188,#189,#190,#191));
#71=EDGE_LOOP('',(#192,#193,#194,#195));
#72=EDGE_LOOP('',(#196,#197,#198));
#73=EDGE_LOOP('',(#199,#200));
#74=EDGE_LOOP('',(#201,#202,#203,#204));
#75=EDGE_LOOP('',(#205,#206,#207,#208));
#76=EDGE_LOOP('',(#209));
#77=EDGE_LOOP('',(#210,#211,#212,#213,#214));
#78=EDGE_LOOP('',(#215,#216,#217,#218,#219,#220,#221,#222,#223,#224,#225,
#226,#227,#228,#229,#230,#231,#232));
#79=EDGE_LOOP('',(#233));
#80=EDGE_LOOP('',(#234));
#81=EDGE_LOOP('',(#235,#236));
#82=EDGE_LOOP('',(#237,#238,#239,#240));
#83=EDGE_LOOP('',(#241));
#84=EDGE_LOOP('',(#242));
#85=EDGE_LOOP('',(#243,#244,#245,#246));
#86=EDGE_LOOP('',(#247));
#87=EDGE_LOOP('',(#248));
#88=LINE('',#440,#104);
#89=LINE('',#442,#105);
#90=LINE('',#444,#106);
#91=LINE('',#445,#107);
#92=LINE('',#449,#108);
#93=LINE('',#452,#109);
#94=LINE('',#458,#110);
#95=LINE('',#460,#111);
#96=LINE('',#462,#112);
#97=LINE('',#463,#113);
#98=LINE('',#468,#114);
#99=LINE('',#470,#115);
#100=LINE('',#482,#116);
#101=LINE('',#494,#117);
#102=LINE('',#502,#118);
#103=LINE('',#510,#119);
#104=VECTOR('',#342,10.);
#105=VECTOR('',#343,10.);
#106=VECTOR('',#344,10.);
#107=VECTOR('',#345,10.);
#108=VECTOR('',#350,10.);
#109=VECTOR('',#353,10.);
#110=VECTOR('',#360,10.);
#111=VECTOR('',#361,10.);
#112=VECTOR('',#362,10.);
#113=VECTOR('',#363,10.);
#114=VECTOR('',#368,10.);
#115=VECTOR('',#371,10.);
#116=VECTOR('',#390,3.00000004470348);
#117=VECTOR('',#407,10.);
#118=VECTOR('',#418,1.00000001490116);
#119=VECTOR('',#429,1.);
#120=VERTEX_POINT('',#438);
#121=VERTEX_POINT('',#439);
#122=VERTEX_POINT('',#441);
#123=VERTEX_POINT('',#443);
#124=VERTEX_POINT('',#447);
#125=VERTEX_POINT('',#450);
#126=VERTEX_POINT('',#456);
#127=VERTEX_POINT('',#457);
#128=VERTEX_POINT('',#459);
#129=VERTEX_POINT('',#461);
#130=VERTEX_POINT('',#465);
#131=VERTEX_POINT('',#467);
#132=VERTEX_POINT('',#479);
#133=VERTEX_POINT('',#481);
#134=VERTEX_POINT('',#486);
#135=VERTEX_POINT('',#488);
#136=VERTEX_POINT('',#490);
#137=VERTEX_POINT('',#499);
#138=VERTEX_POINT('',#501);
#139=VERTEX_POINT('',#507);
#140=VERTEX_POINT('',#509);
#141=EDGE_CURVE('',#120,#121,#88,.T.);
#142=EDGE_CURVE('',#122,#120,#89,.T.);
#143=EDGE_CURVE('',#122,#123,#90,.T.);
#144=EDGE_CURVE('',#121,#123,#91,.T.);
#145=EDGE_CURVE('',#121,#124,#21,.T.);
#146=EDGE_CURVE('',#121,#123,#92,.T.);
#147=EDGE_CURVE('',#123,#125,#22,.T.);
#148=EDGE_CURVE('',#124,#125,#93,.T.);
#149=EDGE_CURVE('',#125,#122,#23,.T.);
#150=EDGE_CURVE('',#126,#127,#94,.T.);
#151=EDGE_CURVE('',#128,#126,#95,.T.);
#152=EDGE_CURVE('',#128,#129,#96,.T.);
#153=EDGE_CURVE('',#127,#129,#97,.T.);
#154=EDGE_CURVE('',#130,#126,#24,.T.);
#155=EDGE_CURVE('',#131,#130,#98,.T.);
#156=EDGE_CURVE('',#131,#128,#25,.T.);
#157=EDGE_CURVE('',#128,#126,#99,.T.);
#158=EDGE_CURVE('',#129,#131,#26,.T.);
#159=EDGE_CURVE('',#126,#127,#27,.T.);
#160=EDGE_CURVE('',#130,#124,#28,.T.);
#161=EDGE_CURVE('',#121,#126,#29,.T.);
#162=EDGE_CURVE('',#132,#132,#30,.T.);
#163=EDGE_CURVE('',#132,#133,#100,.T.);
#164=EDGE_CURVE('',#133,#133,#31,.T.);
#165=EDGE_CURVE('',#134,#134,#32,.T.);
#166=EDGE_CURVE('',#134,#135,#33,.T.);
#167=EDGE_CURVE('',#135,#136,#34,.T.);
#168=EDGE_CURVE('',#136,#135,#35,.T.);
#169=EDGE_CURVE('',#136,#123,#101,.T.);
#170=EDGE_CURVE('',#120,#121,#36,.T.);
#171=EDGE_CURVE('',#137,#137,#37,.T.);
#172=EDGE_CURVE('',#137,#138,#102,.T.);
#173=EDGE_CURVE('',#138,#138,#38,.T.);
#174=EDGE_CURVE('',#139,#139,#39,.T.);
#175=EDGE_CURVE('',#139,#140,#103,.T.);
#176=EDGE_CURVE('',#140,#140,#40,.T.);
#177=ORIENTED_EDGE('',*,*,#141,.F.);
#178=ORIENTED_EDGE('',*,*,#142,.F.);
#179=ORIENTED_EDGE('',*,*,#143,.T.);
#180=ORIENTED_EDGE('',*,*,#144,.F.);
#181=ORIENTED_EDGE('',*,*,#145,.F.);
#182=ORIENTED_EDGE('',*,*,#146,.T.);
#183=ORIENTED_EDGE('',*,*,#147,.T.);
#184=ORIENTED_EDGE('',*,*,#148,.F.);
#185=ORIENTED_EDGE('',*,*,#147,.F.);
#186=ORIENTED_EDGE('',*,*,#143,.F.);
#187=ORIENTED_EDGE('',*,*,#149,.F.);
#188=ORIENTED_EDGE('',*,*,#150,.F.);
#189=ORIENTED_EDGE('',*,*,#151,.F.);
#190=ORIENTED_EDGE('',*,*,#152,.T.);
#191=ORIENTED_EDGE('',*,*,#153,.F.);
#192=ORIENTED_EDGE('',*,*,#154,.F.);
#193=ORIENTED_EDGE('',*,*,#155,.F.);
#194=ORIENTED_EDGE('',*,*,#156,.T.);
#195=ORIENTED_EDGE('',*,*,#157,.T.);
#196=ORIENTED_EDGE('',*,*,#158,.F.);
#197=ORIENTED_EDGE('',*,*,#152,.F.);
#198=ORIENTED_EDGE('',*,*,#156,.F.);
#199=ORIENTED_EDGE('',*,*,#150,.T.);
#200=ORIENTED_EDGE('',*,*,#159,.F.);
#201=ORIENTED_EDGE('',*,*,#145,.T.);
#202=ORIENTED_EDGE('',*,*,#160,.F.);
#203=ORIENTED_EDGE('',*,*,#154,.T.);
#204=ORIENTED_EDGE('',*,*,#161,.F.);
#205=ORIENTED_EDGE('',*,*,#162,.F.);
#206=ORIENTED_EDGE('',*,*,#163,.T.);
#207=ORIENTED_EDGE('',*,*,#164,.T.);
#208=ORIENTED_EDGE('',*,*,#163,.F.);
#209=ORIENTED_EDGE('',*,*,#164,.F.);
#210=ORIENTED_EDGE('',*,*,#165,.T.);
#211=ORIENTED_EDGE('',*,*,#166,.T.);
#212=ORIENTED_EDGE('',*,*,#167,.T.);
#213=ORIENTED_EDGE('',*,*,#168,.T.);
#214=ORIENTED_EDGE('',*,*,#166,.F.);
#215=ORIENTED_EDGE('',*,*,#167,.F.);
#216=ORIENTED_EDGE('',*,*,#168,.F.);
#217=ORIENTED_EDGE('',*,*,#169,.T.);
#218=ORIENTED_EDGE('',*,*,#146,.F.);
#219=ORIENTED_EDGE('',*,*,#161,.T.);
#220=ORIENTED_EDGE('',*,*,#157,.F.);
#221=ORIENTED_EDGE('',*,*,#151,.T.);
#222=ORIENTED_EDGE('',*,*,#159,.T.);
#223=ORIENTED_EDGE('',*,*,#153,.T.);
#224=ORIENTED_EDGE('',*,*,#158,.T.);
#225=ORIENTED_EDGE('',*,*,#155,.T.);
#226=ORIENTED_EDGE('',*,*,#160,.T.);
#227=ORIENTED_EDGE('',*,*,#148,.T.);
#228=ORIENTED_EDGE('',*,*,#149,.T.);
#229=ORIENTED_EDGE('',*,*,#142,.T.);
#230=ORIENTED_EDGE('',*,*,#170,.T.);
#231=ORIENTED_EDGE('',*,*,#144,.T.);
#232=ORIENTED_EDGE('',*,*,#169,.F.);
#233=ORIENTED_EDGE('',*,*,#165,.F.);
#234=ORIENTED_EDGE('',*,*,#162,.T.);
#235=ORIENTED_EDGE('',*,*,#141,.T.);
#236=ORIENTED_EDGE('',*,*,#170,.F.);
#237=ORIENTED_EDGE('',*,*,#171,.F.);
#238=ORIENTED_EDGE('',*,*,#172,.T.);
#239=ORIENTED_EDGE('',*,*,#173,.T.);
#240=ORIENTED_EDGE('',*,*,#172,.F.);
#241=ORIENTED_EDGE('',*,*,#171,.T.);
#242=ORIENTED_EDGE('',*,*,#173,.F.);
#243=ORIENTED_EDGE('',*,*,#174,.F.);
#244=ORIENTED_EDGE('',*,*,#175,.T.);
#245=ORIENTED_EDGE('',*,*,#176,.T.);
#246=ORIENTED_EDGE('',*,*,#175,.F.);
#247=ORIENTED_EDGE('',*,*,#174,.T.);
#248=ORIENTED_EDGE('',*,*,#176,.F.);
#249=PLANE('',#298);
#250=PLANE('',#302);
#251=PLANE('',#304);
#252=PLANE('',#308);
#253=PLANE('',#310);
#254=PLANE('',#312);
#255=PLANE('',#318);
#256=PLANE('',#326);
#257=PLANE('',#327);
#258=PLANE('',#331);
#259=PLANE('',#332);
#260=PLANE('',#336);
#261=PLANE('',#337);
#262=ADVANCED_FACE('',(#47),#249,.F.);
#263=ADVANCED_FACE('',(#48),#41,.F.);
#264=ADVANCED_FACE('',(#49),#250,.T.);
#265=ADVANCED_FACE('',(#50),#251,.F.);
#266=ADVANCED_FACE('',(#51),#42,.F.);
#267=ADVANCED_FACE('',(#52),#252,.T.);
#268=ADVANCED_FACE('',(#53),#253,.F.);
#269=ADVANCED_FACE('',(#54),#254,.F.);
#270=ADVANCED_FACE('',(#55),#43,.F.);
#271=ADVANCED_FACE('',(#56),#255,.T.);
#272=ADVANCED_FACE('',(#57),#20,.T.);
#273=ADVANCED_FACE('',(#58),#44,.T.);
#274=ADVANCED_FACE('',(#59,#19),#256,.T.);
#275=ADVANCED_FACE('',(#60),#257,.F.);
#276=ADVANCED_FACE('',(#61),#45,.T.);
#277=ADVANCED_FACE('',(#62),#258,.T.);
#278=ADVANCED_FACE('',(#63),#259,.F.);
#279=ADVANCED_FACE('',(#64),#46,.T.);
#280=ADVANCED_FACE('',(#65),#260,.T.);
#281=ADVANCED_FACE('',(#66),#261,.F.);
#282=CLOSED_SHELL('',(#262,#263,#264,#265,#266,#267,#268,#269,#270,#271,
#272,#273,#274,#275));
#283=CLOSED_SHELL('',(#276,#277,#278));
#284=CLOSED_SHELL('',(#279,#280,#281));
#285=DERIVED_UNIT_ELEMENT(#287,1.);
#286=DERIVED_UNIT_ELEMENT(#519,-3.);
#287=(
MASS_UNIT()
NAMED_UNIT(*)
SI_UNIT(.KILO.,.GRAM.)
);
#288=DERIVED_UNIT((#285,#286));
#289=MEASURE_REPRESENTATION_ITEM('density measure',
POSITIVE_RATIO_MEASURE(7850.),#288);
#290=PROPERTY_DEFINITION_REPRESENTATION(#295,#292);
#291=PROPERTY_DEFINITION_REPRESENTATION(#296,#293);
#292=REPRESENTATION('material name',(#294),#516);
#293=REPRESENTATION('density',(#289),#516);
#294=DESCRIPTIVE_REPRESENTATION_ITEM('Steel','Steel');
#295=PROPERTY_DEFINITION('material property','material name',#526);
#296=PROPERTY_DEFINITION('material property','density of part',#526);
#297=AXIS2_PLACEMENT_3D('',#436,#338,#339);
#298=AXIS2_PLACEMENT_3D('',#437,#340,#341);
#299=AXIS2_PLACEMENT_3D('',#446,#346,#347);
#300=AXIS2_PLACEMENT_3D('',#448,#348,#349);
#301=AXIS2_PLACEMENT_3D('',#451,#351,#352);
#302=AXIS2_PLACEMENT_3D('',#453,#354,#355);
#303=AXIS2_PLACEMENT_3D('',#454,#356,#357);
#304=AXIS2_PLACEMENT_3D('',#455,#358,#359);
#305=AXIS2_PLACEMENT_3D('',#464,#364,#365);
#306=AXIS2_PLACEMENT_3D('',#466,#366,#367);
#307=AXIS2_PLACEMENT_3D('',#469,#369,#370);
#308=AXIS2_PLACEMENT_3D('',#471,#372,#373);
#309=AXIS2_PLACEMENT_3D('',#472,#374,#375);
#310=AXIS2_PLACEMENT_3D('',#473,#376,#377);
#311=AXIS2_PLACEMENT_3D('',#474,#378,#379);
#312=AXIS2_PLACEMENT_3D('',#475,#380,#381);
#313=AXIS2_PLACEMENT_3D('',#476,#382,#383);
#314=AXIS2_PLACEMENT_3D('',#477,#384,#385);
#315=AXIS2_PLACEMENT_3D('',#478,#386,#387);
#316=AXIS2_PLACEMENT_3D('',#480,#388,#389);
#317=AXIS2_PLACEMENT_3D('',#483,#391,#392);
#318=AXIS2_PLACEMENT_3D('',#484,#393,#394);
#319=AXIS2_PLACEMENT_3D('',#485,#395,#396);
#320=AXIS2_PLACEMENT_3D('',#487,#397,#398);
#321=AXIS2_PLACEMENT_3D('',#489,#399,#400);
#322=AXIS2_PLACEMENT_3D('',#491,#401,#402);
#323=AXIS2_PLACEMENT_3D('',#492,#403,#404);
#324=AXIS2_PLACEMENT_3D('',#493,#405,#406);
#325=AXIS2_PLACEMENT_3D('',#495,#408,#409);
#326=AXIS2_PLACEMENT_3D('',#496,#410,#411);
#327=AXIS2_PLACEMENT_3D('',#497,#412,#413);
#328=AXIS2_PLACEMENT_3D('',#498,#414,#415);
#329=AXIS2_PLACEMENT_3D('',#500,#416,#417);
#330=AXIS2_PLACEMENT_3D('',#503,#419,#420);
#331=AXIS2_PLACEMENT_3D('',#504,#421,#422);
#332=AXIS2_PLACEMENT_3D('',#505,#423,#424);
#333=AXIS2_PLACEMENT_3D('',#506,#425,#426);
#334=AXIS2_PLACEMENT_3D('',#508,#427,#428);
#335=AXIS2_PLACEMENT_3D('',#511,#430,#431);
#336=AXIS2_PLACEMENT_3D('',#512,#432,#433);
#337=AXIS2_PLACEMENT_3D('',#513,#434,#435);
#338=DIRECTION('axis',(0.,0.,1.));
#339=DIRECTION('refdir',(1.,0.,0.));
#340=DIRECTION('center_axis',(-0.956877580506485,-0.290491473066,0.));
#341=DIRECTION('ref_axis',(0.290491473066,-0.956877580506485,0.));
#342=DIRECTION('',(0.290491473066,-0.956877580506485,0.));
#343=DIRECTION('',(0.,0.,-1.));
#344=DIRECTION('',(0.290491473066,-0.956877580506485,0.));
#345=DIRECTION('',(0.,0.,1.));
#346=DIRECTION('center_axis',(0.,0.,1.));
#347=DIRECTION('ref_axis',(0.986887017141069,0.161412562703167,0.));
#348=DIRECTION('center_axis',(0.,0.,1.));
#349=DIRECTION('ref_axis',(0.986887017141069,0.161412562703167,0.));
#350=DIRECTION('',(0.,0.,1.));
#351=DIRECTION('center_axis',(0.,0.,1.));
#352=DIRECTION('ref_axis',(0.986887017141069,0.161412562703167,0.));
#353=DIRECTION('',(0.,0.,1.));
#354=DIRECTION('center_axis',(0.,0.,-1.));
#355=DIRECTION('ref_axis',(1.,0.,0.));
#356=DIRECTION('center_axis',(0.,0.,1.));
#357=DIRECTION('ref_axis',(1.,0.,0.));
#358=DIRECTION('center_axis',(0.956877580506485,-0.290491473066,0.));
#359=DIRECTION('ref_axis',(0.290491473066,0.956877580506485,0.));
#360=DIRECTION('',(0.290491473066,0.956877580506485,0.));
#361=DIRECTION('',(0.,0.,-1.));
#362=DIRECTION('',(0.290491473066,0.956877580506485,0.));
#363=DIRECTION('',(0.,0.,1.));
#364=DIRECTION('center_axis',(0.,0.,1.));
#365=DIRECTION('ref_axis',(-0.968517416131706,-0.248945806651897,0.));
#366=DIRECTION('center_axis',(0.,0.,1.));
#367=DIRECTION('ref_axis',(-0.968517416131706,-0.248945806651897,0.));
#368=DIRECTION('',(0.,0.,-1.));
#369=DIRECTION('center_axis',(0.,0.,1.));
#370=DIRECTION('ref_axis',(-0.968517416131706,-0.248945806651897,0.));
#371=DIRECTION('',(0.,0.,-1.));
#372=DIRECTION('center_axis',(0.,0.,-1.));
#373=DIRECTION('ref_axis',(1.,0.,0.));
#374=DIRECTION('center_axis',(0.,0.,1.));
#375=DIRECTION('ref_axis',(1.,0.,0.));
#376=DIRECTION('center_axis',(0.,0.,1.));
#377=DIRECTION('ref_axis',(1.,0.,0.));
#378=DIRECTION('center_axis',(0.,0.,1.));
#379=DIRECTION('ref_axis',(1.,0.,0.));
#380=DIRECTION('center_axis',(0.,0.,1.));
#381=DIRECTION('ref_axis',(1.,0.,0.));
#382=DIRECTION('center_axis',(0.,0.,1.));
#383=DIRECTION('ref_axis',(1.,0.,0.));
#384=DIRECTION('center_axis',(0.,0.,1.));
#385=DIRECTION('ref_axis',(1.,0.,0.));
#386=DIRECTION('center_axis',(0.,0.,-1.));
#387=DIRECTION('ref_axis',(-1.,0.,0.));
#388=DIRECTION('center_axis',(0.,0.,-1.));
#389=DIRECTION('ref_axis',(-1.,0.,0.));
#390=DIRECTION('',(0.,0.,-1.));
#391=DIRECTION('center_axis',(0.,0.,-1.));
#392=DIRECTION('ref_axis',(-1.,0.,0.));
#393=DIRECTION('center_axis',(0.,0.,1.));
#394=DIRECTION('ref_axis',(-1.,0.,0.));
#395=DIRECTION('center_axis',(0.,0.,1.));
#396=DIRECTION('ref_axis',(1.,0.,0.));
#397=DIRECTION('center_axis',(0.,0.,-1.));
#398=DIRECTION('ref_axis',(1.,0.,0.));
#399=DIRECTION('center_axis',(1.22464679914735E-16,-1.,0.));
#400=DIRECTION('ref_axis',(-1.,-1.22464679914735E-16,0.));
#401=DIRECTION('center_axis',(0.,0.,1.));
#402=DIRECTION('ref_axis',(1.,0.,0.));
#403=DIRECTION('center_axis',(0.,0.,1.));
#404=DIRECTION('ref_axis',(1.,0.,0.));
#405=DIRECTION('center_axis',(0.,0.,1.));
#406=DIRECTION('ref_axis',(0.950229540973498,0.311550669171639,0.));
#407=DIRECTION('',(0.,0.,-1.));
#408=DIRECTION('center_axis',(0.,0.,1.));
#409=DIRECTION('ref_axis',(1.,0.,0.));
#410=DIRECTION('center_axis',(0.,0.,1.));
#411=DIRECTION('ref_axis',(1.,0.,0.));
#412=DIRECTION('center_axis',(0.,0.,1.));
#413=DIRECTION('ref_axis',(1.,0.,0.));
#414=DIRECTION('center_axis',(0.,0.,-1.));
#415=DIRECTION('ref_axis',(1.,0.,0.));
#416=DIRECTION('center_axis',(0.,0.,-1.));
#417=DIRECTION('ref_axis',(1.,0.,0.));
#418=DIRECTION('',(0.,0.,1.));
#419=DIRECTION('center_axis',(0.,0.,-1.));
#420=DIRECTION('ref_axis',(1.,0.,0.));
#421=DIRECTION('center_axis',(0.,0.,-1.));
#422=DIRECTION('ref_axis',(1.,0.,0.));
#423=DIRECTION('center_axis',(0.,0.,-1.));
#424=DIRECTION('ref_axis',(1.,0.,0.));
#425=DIRECTION('center_axis',(0.,0.,-1.));
#426=DIRECTION('ref_axis',(1.,0.,0.));
#427=DIRECTION('center_axis',(0.,0.,-1.));
#428=DIRECTION('ref_axis',(1.,0.,0.));
#429=DIRECTION('',(0.,0.,1.));
#430=DIRECTION('center_axis',(0.,0.,-1.));
#431=DIRECTION('ref_axis',(1.,0.,0.));
#432=DIRECTION('center_axis',(0.,0.,-1.));
#433=DIRECTION('ref_axis',(1.,0.,0.));
#434=DIRECTION('center_axis',(0.,0.,-1.));
#435=DIRECTION('ref_axis',(1.,0.,0.));
#436=CARTESIAN_POINT('',(0.,0.,0.));
#437=CARTESIAN_POINT('Origin',(-9.63058964076734,-2.69290608286721,0.));
#438=CARTESIAN_POINT('',(-9.63058964076734,-2.69290608286721,0.));
#439=CARTESIAN_POINT('',(-9.50229540973498,-3.11550669171639,0.));
#440=CARTESIAN_POINT('',(-9.59851608300951,-2.79855623507863,0.));
#441=CARTESIAN_POINT('',(-9.63058964076734,-2.69290608286721,0.5));
#442=CARTESIAN_POINT('',(-9.63058964076838,-2.69290608286378,0.));
#443=CARTESIAN_POINT('',(-9.50229540973498,-3.11550669171639,0.5));
#444=CARTESIAN_POINT('',(-11.4529023765528,3.3097837143249,0.5));
#445=CARTESIAN_POINT('',(-9.50229540973499,-3.11550669171633,0.));
#446=CARTESIAN_POINT('Origin',(-26.1830350632869,1.17207773313519,0.));
#447=CARTESIAN_POINT('',(-9.18591645064444,3.9520803334168,0.));
#448=CARTESIAN_POINT('Origin',(-26.1830350632869,1.17207773313519,0.));
#449=CARTESIAN_POINT('',(-9.50229540973499,-3.11550669171633,0.));
#450=CARTESIAN_POINT('',(-9.18591645064444,3.9520803334168,0.5));
#451=CARTESIAN_POINT('Origin',(-26.1830350632869,1.17207773313519,0.5));
#452=CARTESIAN_POINT('',(-9.18591645064445,3.95208033341679,0.));
#453=CARTESIAN_POINT('Origin',(-9.48003601581516,0.418286820850203,0.5));
#454=CARTESIAN_POINT('Origin',(0.,0.,0.5));
#455=CARTESIAN_POINT('Origin',(9.50229540973498,-3.11550669171639,0.));
#456=CARTESIAN_POINT('',(9.50229540973498,-3.11550669171639,0.));
#457=CARTESIAN_POINT('',(9.63058964076825,-2.6929060828642,0.));
#458=CARTESIAN_POINT('',(9.53436896749333,-3.00985653950322,0.));
#459=CARTESIAN_POINT('',(9.50229540973498,-3.11550669171639,0.5));
#460=CARTESIAN_POINT('',(9.50229540973498,-3.11550669171638,0.));
#461=CARTESIAN_POINT('',(9.63058964076825,-2.6929060828642,0.5));
#462=CARTESIAN_POINT('',(11.4529023765528,3.3097837143249,0.5));
#463=CARTESIAN_POINT('',(9.6305896407684,-2.69290608286373,0.));
#464=CARTESIAN_POINT('Origin',(26.183035063287,1.17207773313518,0.));
#465=CARTESIAN_POINT('',(9.18591645064444,3.95208033341679,0.));
#466=CARTESIAN_POINT('Origin',(26.183035063287,1.17207773313518,0.));
#467=CARTESIAN_POINT('',(9.18591645064444,3.95208033341679,0.5));
#468=CARTESIAN_POINT('',(9.18591645064444,3.9520803334168,0.));
#469=CARTESIAN_POINT('Origin',(26.183035063287,1.17207773313518,0.5));
#470=CARTESIAN_POINT('',(9.50229540973498,-3.11550669171638,0.));
#471=CARTESIAN_POINT('Origin',(9.48003601581516,0.418286820850202,0.5));
#472=CARTESIAN_POINT('Origin',(0.,0.,0.5));
#473=CARTESIAN_POINT('Origin',(0.,0.,0.));
#474=CARTESIAN_POINT('Origin',(0.,0.,0.));
#475=CARTESIAN_POINT('Origin',(0.,0.,0.));
#476=CARTESIAN_POINT('Origin',(0.,0.,0.));
#477=CARTESIAN_POINT('Origin',(0.,0.,0.));
#478=CARTESIAN_POINT('Origin',(0.,0.,15.));
#479=CARTESIAN_POINT('',(3.00000004470348,3.67394045218804E-16,15.));
#480=CARTESIAN_POINT('Origin',(0.,0.,15.));
#481=CARTESIAN_POINT('',(3.00000004470348,3.67394045218804E-16,10.));
#482=CARTESIAN_POINT('',(3.00000004470348,-3.67394045218804E-16,15.));
#483=CARTESIAN_POINT('Origin',(0.,0.,10.));
#484=CARTESIAN_POINT('Origin',(0.,0.,10.));
#485=CARTESIAN_POINT('Origin',(0.,0.,14.));
#486=CARTESIAN_POINT('',(-9.,1.10218211923262E-15,15.));
#487=CARTESIAN_POINT('Origin',(0.,0.,15.));
#488=CARTESIAN_POINT('',(-10.,-1.22464679914735E-15,14.));
#489=CARTESIAN_POINT('Origin',(-9.,-1.10218211923262E-15,14.));
#490=CARTESIAN_POINT('',(-9.50229540973498,-3.11550669171639,14.));
#491=CARTESIAN_POINT('Origin',(0.,0.,14.));
#492=CARTESIAN_POINT('Origin',(0.,0.,14.));
#493=CARTESIAN_POINT('Origin',(0.,0.,0.));
#494=CARTESIAN_POINT('',(-9.50229540973498,-3.11550669171639,0.));
#495=CARTESIAN_POINT('Origin',(0.,0.,0.));
#496=CARTESIAN_POINT('Origin',(0.,0.,15.));
#497=CARTESIAN_POINT('Origin',(0.,0.,0.));
#498=CARTESIAN_POINT('Origin',(0.,-5.00000007450581,0.));
#499=CARTESIAN_POINT('',(-1.00000001490116,-5.00000007450581,-15.));
#500=CARTESIAN_POINT('Origin',(0.,-5.00000007450581,-15.));
#501=CARTESIAN_POINT('',(-1.00000001490116,-5.00000007450581,0.));
#502=CARTESIAN_POINT('',(-1.00000001490116,-5.00000007450581,0.));
#503=CARTESIAN_POINT('Origin',(0.,-5.00000007450581,0.));
#504=CARTESIAN_POINT('Origin',(0.,-5.00000007450581,-15.));
#505=CARTESIAN_POINT('Origin',(0.,-5.00000007450581,0.));
#506=CARTESIAN_POINT('Origin',(0.,5.00000007450581,0.));
#507=CARTESIAN_POINT('',(-1.,5.00000007450581,-15.));
#508=CARTESIAN_POINT('Origin',(0.,5.00000007450581,-15.));
#509=CARTESIAN_POINT('',(-1.,5.00000007450581,0.));
#510=CARTESIAN_POINT('',(-1.,5.00000007450581,0.));
#511=CARTESIAN_POINT('Origin',(0.,5.00000007450581,0.));
#512=CARTESIAN_POINT('Origin',(0.,5.00000007450581,-15.));
#513=CARTESIAN_POINT('Origin',(0.,5.00000007450581,0.));
#514=UNCERTAINTY_MEASURE_WITH_UNIT(LENGTH_MEASURE(0.01),#518,
'DISTANCE_ACCURACY_VALUE',
'Maximum model space distance between geometric entities at asserted c
onnectivities');
#515=UNCERTAINTY_MEASURE_WITH_UNIT(LENGTH_MEASURE(0.01),#518,
'DISTANCE_ACCURACY_VALUE',
'Maximum model space distance between geometric entities at asserted c
onnectivities');
#516=(
GEOMETRIC_REPRESENTATION_CONTEXT(3)
GLOBAL_UNCERTAINTY_ASSIGNED_CONTEXT((#514))
GLOBAL_UNIT_ASSIGNED_CONTEXT((#518,#520,#521))
REPRESENTATION_CONTEXT('','3D')
);
#517=(
GEOMETRIC_REPRESENTATION_CONTEXT(3)
GLOBAL_UNCERTAINTY_ASSIGNED_CONTEXT((#515))
GLOBAL_UNIT_ASSIGNED_CONTEXT((#518,#520,#521))
REPRESENTATION_CONTEXT('','3D')
);
#518=(
LENGTH_UNIT()
NAMED_UNIT(*)
SI_UNIT(.MILLI.,.METRE.)
);
#519=(
LENGTH_UNIT()
NAMED_UNIT(*)
SI_UNIT($,.METRE.)
);
#520=(
NAMED_UNIT(*)
PLANE_ANGLE_UNIT()
SI_UNIT($,.RADIAN.)
);
#521=(
NAMED_UNIT(*)
SI_UNIT($,.STERADIAN.)
SOLID_ANGLE_UNIT()
);
#522=SHAPE_DEFINITION_REPRESENTATION(#523,#524);
#523=PRODUCT_DEFINITION_SHAPE('',$,#526);
#524=SHAPE_REPRESENTATION('',(#297),#516);
#525=PRODUCT_DEFINITION_CONTEXT('part definition',#530,'design');
#526=PRODUCT_DEFINITION('DC Buzzer','DC Buzzer v1',#527,#525);
#527=PRODUCT_DEFINITION_FORMATION('',$,#532);
#528=PRODUCT_RELATED_PRODUCT_CATEGORY('DC Buzzer v1','DC Buzzer v1',(#532));
#529=APPLICATION_PROTOCOL_DEFINITION('international standard',
'automotive_design',2009,#530);
#530=APPLICATION_CONTEXT(
'Core Data for Automotive Mechanical Design Process');
#531=PRODUCT_CONTEXT('part definition',#530,'mechanical');
#532=PRODUCT('DC Buzzer','DC Buzzer v1',$,(#531));
#533=PRESENTATION_STYLE_ASSIGNMENT((#536));
#534=PRESENTATION_STYLE_ASSIGNMENT((#537));
#535=PRESENTATION_STYLE_ASSIGNMENT((#538));
#536=SURFACE_STYLE_USAGE(.BOTH.,#539);
#537=SURFACE_STYLE_USAGE(.BOTH.,#540);
#538=SURFACE_STYLE_USAGE(.BOTH.,#541);
#539=SURFACE_SIDE_STYLE('',(#542));
#540=SURFACE_SIDE_STYLE('',(#543));
#541=SURFACE_SIDE_STYLE('',(#544));
#542=SURFACE_STYLE_FILL_AREA(#545);
#543=SURFACE_STYLE_FILL_AREA(#546);
#544=SURFACE_STYLE_FILL_AREA(#547);
#545=FILL_AREA_STYLE('Steel - Satin',(#548));
#546=FILL_AREA_STYLE('Paint - Metallic (Black)',(#549));
#547=FILL_AREA_STYLE('Paint - Enamel Glossy (White)',(#550));
#548=FILL_AREA_STYLE_COLOUR('Steel - Satin',#551);
#549=FILL_AREA_STYLE_COLOUR('Paint - Metallic (Black)',#552);
#550=FILL_AREA_STYLE_COLOUR('Paint - Enamel Glossy (White)',#553);
#551=COLOUR_RGB('Steel - Satin',0.627450980392157,0.627450980392157,0.627450980392157);
#552=COLOUR_RGB('Paint - Metallic (Black)',0.0980392156862745,0.0980392156862745,
0.0980392156862745);
#553=COLOUR_RGB('Paint - Enamel Glossy (White)',0.964705882352941,0.964705882352941,
0.952941176470588);
ENDSEC;
END-ISO-10303-21;
