                                                                        S      1
,,12HDC Buzzer v1,12HDC Buzzer v1,7Hunknown,7Hunknown,32,38,7,99,15,,1.,G      1
2,2HMM,1,0.08,15H20250903.150414,0.01,10000.,7Hunknown,7Hunknown,11,0,  G      2
15H20250903.093304;                                                     G      3
     186       1                                                00000000D      1
     186            -221       1       0                               0D      2
     186       2                                                00000000D      3
     186            -223       1       0                               0D      4
     186       3                                                00000000D      5
     186            -223       1       0                               0D      6
     514       4                                                00010000D      7
     514                       2       1                               0D      8
     514       6                                                00010000D      9
     514                       1       1                               0D     10
     514       7                                                00010000D     11
     514                       1       1                               0D     12
     510       8                                                00010000D     13
     510            -221       1       1                               0D     14
     510       9                                                00010000D     15
     510            -221       1       1                               0D     16
     510      10                                                00010000D     17
     510            -221       1       1                               0D     18
     510      11                                                00010000D     19
     510            -221       1       1                               0D     20
     510      12                                                00010000D     21
     510            -221       1       1                               0D     22
     510      13                                                00010000D     23
     510            -221       1       1                               0D     24
     510      14                                                00010000D     25
     510            -221       1       1                               0D     26
     510      15                                                00010000D     27
     510            -221       1       1                               0D     28
     510      16                                                00010000D     29
     510            -221       1       1                               0D     30
     510      17                                                00010000D     31
     510            -221       1       1                               0D     32
     510      18                                                00010000D     33
     510            -221       1       1                               0D     34
     510      19                                                00010000D     35
     510            -221       1       1                               0D     36
     510      20                                                00010000D     37
     510            -221       1       1                               0D     38
     510      21                                                00010000D     39
     510            -221       1       1                               0D     40
     510      22                                                00010000D     41
     510            -223       1       1                               0D     42
     510      23                                                00010000D     43
     510            -223       1       1                               0D     44
     510      24                                                00010000D     45
     510            -223       1       1                               0D     46
     510      25                                                00010000D     47
     510            -223       1       1                               0D     48
     510      26                                                00010000D     49
     510            -223       1       1                               0D     50
     510      27                                                00010000D     51
     510            -223       1       1                               0D     52
     508      28                                                00010000D     53
     508                       1       1                               0D     54
     508      29                                                00010000D     55
     508                       1       1                               0D     56
     508      30                                                00010000D     57
     508                       1       1                               0D     58
     508      31                                                00010000D     59
     508                       1       1                               0D     60
     508      32                                                00010000D     61
     508                       1       1                               0D     62
     508      33                                                00010000D     63
     508                       1       1                               0D     64
     508      34                                                00010000D     65
     508                       1       1                               0D     66
     508      35                                                00010000D     67
     508                       1       1                               0D     68
     508      36                                                00010000D     69
     508                       1       1                               0D     70
     508      37                                                00010000D     71
     508                       1       1                               0D     72
     508      38                                                00010000D     73
     508                       1       1                               0D     74
     508      39                                                00010000D     75
     508                       4       1                               0D     76
     508      43                                                00010000D     77
     508                       1       1                               0D     78
     508      44                                                00010000D     79
     508                       1       1                               0D     80
     508      45                                                00010000D     81
     508                       1       1                               0D     82
     508      46                                                00010000D     83
     508                       1       1                               0D     84
     508      47                                                00010000D     85
     508                       1       1                               0D     86
     508      48                                                00010000D     87
     508                       1       1                               0D     88
     508      49                                                00010000D     89
     508                       1       1                               0D     90
     508      50                                                00010000D     91
     508                       1       1                               0D     92
     508      51                                                00010000D     93
     508                       1       1                               0D     94
     126      52                                                00010000D     95
     126       0               4       0                               0D     96
     126      56                                                00010000D     97
     126       0               3       0                               0D     98
     126      59                                                00010000D     99
     126       0               4       0                               0D    100
     126      63                                                00010000D    101
     126       0               3       0                               0D    102
     126      66                                                00010000D    103
     126       0               5       0                               0D    104
     126      71                                                00010000D    105
     126       0               5       0                               0D    106
     126      76                                                00010000D    107
     126       0               3       0                               0D    108
     126      79                                                00010000D    109
     126       0               6       0                               0D    110
     126      85                                                00010000D    111
     126       0               6       0                               0D    112
     126      91                                                00010000D    113
     126       0               4       0                               0D    114
     126      95                                                00010000D    115
     126       0               3       0                               0D    116
     126      98                                                00010000D    117
     126       0               4       0                               0D    118
     126     102                                                00010000D    119
     126       0               3       0                               0D    120
     126     105                                                00010000D    121
     126       0               5       0                               0D    122
     126     110                                                00010000D    123
     126       0               3       0                               0D    124
     126     113                                                00010000D    125
     126       0               5       0                               0D    126
     126     118                                                00010000D    127
     126       0               6       0                               0D    128
     126     124                                                00010000D    129
     126       0               6       0                               0D    130
     126     130                                                00010000D    131
     126       0               8       0                               0D    132
     126     138                                                00010000D    133
     126       0               8       0                               0D    134
     126     146                                                00010000D    135
     126       0              12       0                               0D    136
     126     158                                                00010000D    137
     126       0               3       0                               0D    138
     126     161                                                00010000D    139
     126       0              12       0                               0D    140
     126     173                                                00010000D    141
     126       0               9       0                               0D    142
     126     182                                                00010000D    143
     126       0               3       0                               0D    144
     126     185                                                00010000D    145
     126       0              10       0                               0D    146
     126     195                                                00010000D    147
     126       0               2       0                               0D    148
     126     197                                                00010000D    149
     126       0               6       0                               0D    150
     126     203                                                00010000D    151
     126       0              12       0                               0D    152
     126     215                                                00010000D    153
     126       0               3       0                               0D    154
     126     218                                                00010000D    155
     126       0              12       0                               0D    156
     126     230                                                00010000D    157
     126       0              11       0                               0D    158
     126     241                                                00010000D    159
     126       0               2       0                               0D    160
     126     243                                                00010000D    161
     126       0              11       0                               0D    162
     128     254                                                00010000D    163
     128       0    -221       6       0                               0D    164
     128     260                                                00010000D    165
     128       0    -221       8       0                               0D    166
     128     268                                                00010000D    167
     128       0    -221       7       0                               0D    168
     128     275                                                00010000D    169
     128       0    -221       6       0                               0D    170
     128     281                                                00010000D    171
     128       0    -221       9       0                               0D    172
     128     290                                                00010000D    173
     128       0    -221       7       0                               0D    174
     128     297                                                00010000D    175
     128       0    -221       7       0                               0D    176
     128     304                                                00010000D    177
     128       0    -221       5       0                               0D    178
     128     309                                                00010000D    179
     128       0    -221      18       0                               0D    180
     128     327                                                00010000D    181
     128       0    -221       7       0                               0D    182
     128     334                                                00010000D    183
     128       0    -221      15       0                               0D    184
     128     349                                                00010000D    185
     128       0    -221      11       0                               0D    186
     128     360                                                00010000D    187
     128       0    -221       3       0                               0D    188
     128     363                                                00010000D    189
     128       0    -221       7       0                               0D    190
     128     370                                                00010000D    191
     128       0    -223      19       0                               0D    192
     128     389                                                00010000D    193
     128       0    -223       7       0                               0D    194
     128     396                                                00010000D    195
     128       0    -223       7       0                               0D    196
     128     403                                                00010000D    197
     128       0    -223      17       0                               0D    198
     128     420                                                00010000D    199
     128       0    -223       4       0                               0D    200
     128     424                                                00010000D    201
     128       0    -223       4       0                               0D    202
     502     428                                                00010000D    203
     502                      11       1                               0D    204
     502     439                                                00010000D    205
     502                       2       1                               0D    206
     502     441                                                00010000D    207
     502                       1       1                               0D    208
     504     442                                                00010001D    209
     504                       8       1                               0D    210
     504     450                                                00010001D    211
     504                       1       1                               0D    212
     504     451                                                00010001D    213
     504                       1       1                               0D    214
     406     452                                                00000000D    215
     406                       1      15                               0D    216
     406     453                                                00000000D    217
     406                       1      15                               0D    218
     406     454                                                00000000D    219
     406                       1      15                               0D    220
     314     455                                                00000200D    221
     314                       2       0                               0D    222
     314     457                                                00000200D    223
     314                       2       0                               0D    224
     314     459                                                00000200D    225
     314                       2       0                               0D    226
186,7,1,0,0,1,215;                                                     1P      1
186,9,1,0,0,1,217;                                                     3P      2
186,11,1,0,0,1,219;                                                    5P      3
514,14,13,1,15,1,17,1,19,1,21,1,23,1,25,1,27,1,29,1,31,1,33,1,         7P      4
35,1,37,1,39,1;                                                        7P      5
514,3,41,1,43,1,45,1;                                                  9P      6
514,3,47,1,49,1,51,1;                                                 11P      7
510,163,1,1,53;                                                       13P      8
510,165,1,1,55;                                                       15P      9
510,167,1,1,57;                                                       17P     10
510,169,1,1,59;                                                       19P     11
510,171,1,1,61;                                                       21P     12
510,173,1,1,63;                                                       23P     13
510,175,1,1,65;                                                       25P     14
510,177,1,1,67;                                                       27P     15
510,179,1,1,69;                                                       29P     16
510,181,1,1,71;                                                       31P     17
510,183,1,1,73;                                                       33P     18
510,185,1,1,75;                                                       35P     19
510,187,2,1,77,79;                                                    37P     20
510,189,1,1,81;                                                       39P     21
510,191,1,1,83;                                                       41P     22
510,193,1,1,85;                                                       43P     23
510,195,1,1,87;                                                       45P     24
510,197,1,1,89;                                                       47P     25
510,199,1,1,91;                                                       49P     26
510,201,1,1,93;                                                       51P     27
508,4,0,209,1,0,0,0,209,2,0,0,0,209,3,1,0,0,209,4,0,0;                53P     28
508,4,0,209,5,0,0,0,209,4,1,0,0,209,6,1,0,0,209,7,0,0;                55P     29
508,4,0,209,6,0,0,0,209,3,0,0,0,209,8,0,0,0,209,9,0,0;                57P     30
508,4,0,209,10,0,0,0,209,11,0,0,0,209,12,1,0,0,209,13,0,0;            59P     31
508,4,0,209,14,0,0,0,209,15,0,0,0,209,16,1,0,0,209,11,1,0;            61P     32
508,3,0,209,17,0,0,0,209,12,0,0,0,209,16,0,0;                         63P     33
508,2,0,209,10,1,0,0,209,18,0,0;                                      65P     34
508,4,0,209,5,1,0,0,209,19,0,0,0,209,14,1,0,0,209,20,0,0;             67P     35
508,4,0,209,21,0,0,0,209,22,1,0,0,209,23,1,0,0,209,22,0,0;            69P     36
508,1,0,209,23,0,0;                                                   71P     37
508,4,0,209,24,1,0,0,209,25,1,0,0,209,26,1,0,0,209,25,0,0;            73P     38
508,18,0,209,26,0,0,0,209,27,1,0,0,209,8,1,0,0,209,2,1,0,0,209,       75P     39
28,1,0,0,209,4,1,0,0,209,4,0,0,0,209,20,1,0,0,209,11,0,0,0,209,       75P     40
11,1,0,0,209,18,1,0,0,209,13,1,0,0,209,17,1,0,0,209,15,1,0,0,         75P     41
209,19,1,0,0,209,7,1,0,0,209,9,1,0,0,209,27,0,0;                      75P     42
508,1,0,209,24,0,0;                                                   77P     43
508,1,0,209,21,1,0;                                                   79P     44
508,2,0,209,1,1,0,0,209,28,0,0;                                       81P     45
508,4,0,211,1,0,0,0,211,2,1,0,0,211,3,1,0,0,211,2,0,0;                83P     46
508,1,0,211,1,1,0;                                                    85P     47
508,1,0,211,3,0,0;                                                    87P     48
508,4,0,213,1,0,0,0,213,2,1,0,0,213,3,1,0,0,213,2,0,0;                89P     49
508,1,0,213,1,1,0;                                                    91P     50
508,1,0,213,3,0,0;                                                    93P     51
126,1,1,0,0,1,0,-0.0110411357067747,-0.0110411357067747,              95P     52
0.0331234071206885,0.0331234071206885,1.,1.,-9.63058964076734,        95P     53
-2.69290608286721,0.,-9.50229540973498,-3.11550669171639,0.,          95P     54
-0.0110411357067747,0.0331234071206885,0.,0.,0.;                      95P     55
126,1,1,0,0,1,0,-0.05,-0.05,0.,0.,1.,1.,-9.63058964076838,            97P     56
-2.69290608286378,0.5,-9.63058964076838,-2.69290608286378,0.,         97P     57
-0.05,0.,0.,0.,0.;                                                    97P     58
126,1,1,0,0,1,0,0.627320560067341,0.627320560067341,                  99P     59
0.671485102894805,0.671485102894805,1.,1.,-9.63058964076734,          99P     60
-2.69290608286721,0.5,-9.50229540973498,-3.11550669171639,0.5,        99P     61
0.627320560067341,0.671485102894805,0.,0.,0.;                         99P     62
126,1,1,0,0,1,0,0.,0.,0.05,0.05,1.,1.,-9.50229540973499,             101P     63
-3.11550669171633,0.,-9.50229540973499,-3.11550669171633,0.5,0.,     101P     64
0.05,0.,0.,0.;                                                       101P     65
126,2,2,0,0,0,0,-0.413713459382337,-0.413713459382337,               103P     66
-0.413713459382337,0.,0.,0.,1.,0.978681327917705,1.,                 103P     67
-9.50229540973498,-3.11550669171639,0.,-8.60250909284018,            103P     68
0.385089403594344,0.,-9.18591645064444,3.9520803334168,0.,           103P     69
-0.413713459382337,0.,0.,0.,0.;                                      103P     70
126,2,2,0,0,0,0,-0.413713459382337,-0.413713459382337,               105P     71
-0.413713459382337,0.,0.,0.,1.,0.978681327917705,1.,                 105P     72
-9.50229540973498,-3.11550669171639,0.5,-8.60250909284018,           105P     73
0.385089403594345,0.5,-9.18591645064444,3.9520803334168,0.5,         105P     74
-0.413713459382337,0.,0.,0.,0.;                                      105P     75
126,1,1,0,0,1,0,0.,0.,0.05,0.05,1.,1.,-9.18591645064445,             107P     76
3.95208033341679,0.,-9.18591645064445,3.95208033341679,0.5,0.,       107P     77
0.05,0.,0.,0.;                                                       107P     78
126,2,2,0,0,0,0,3.14159265358979,3.14159265358979,                   109P     79
3.14159265358979,3.41424900654092,3.41424900654092,                  109P     80
3.41424900654092,1.,0.990721697571198,1.,-10.,                       109P     81
1.22464679914735D-15,0.5,-10.,-1.37179072669055,0.5,                 109P     82
-9.63058964076742,-2.69290608286723,0.5,3.14159265358979,            109P     83
3.41424900654092,0.,0.,0.;                                           109P     84
126,2,2,0,0,0,0,2.73529834368015,2.73529834368015,                   111P     85
2.73529834368015,3.14159265358979,3.14159265358979,                  111P     86
3.14159265358979,1.,0.979436482132567,1.,-9.18591645064444,          111P     87
3.95208033341679,0.5,-10.,2.05988613761739,0.5,-10.,                 111P     88
1.22464679914735D-15,0.5,2.73529834368015,3.14159265358979,0.,       111P     89
0.,0.;                                                               111P     90
126,1,1,0,0,1,0,-0.0110411357069569,-0.0110411357069569,             113P     91
0.0331234071208211,0.0331234071208211,1.,1.,9.50229540973498,        113P     92
-3.11550669171639,0.,9.63058964076825,-2.6929060828642,0.,           113P     93
-0.0110411357069569,0.0331234071208211,0.,0.,0.;                     113P     94
126,1,1,0,0,1,0,-0.05,-0.05,0.,0.,1.,1.,9.50229540973498,            115P     95
-3.11550669171638,0.5,9.50229540973498,-3.11550669171638,0.,         115P     96
-0.05,0.,0.,0.,0.;                                                   115P     97
126,1,1,0,0,1,0,-0.671485102894805,-0.671485102894805,               117P     98
-0.627320560067027,-0.627320560067027,1.,1.,9.50229540973498,        117P     99
-3.11550669171639,0.5,9.63058964076825,-2.6929060828642,0.5,         117P    100
-0.671485102894805,-0.627320560067027,0.,0.,0.;                      117P    101
126,1,1,0,0,1,0,0.,0.,0.05,0.05,1.,1.,9.6305896407684,               119P    102
-2.69290608286373,0.,9.6305896407684,-2.69290608286373,0.5,0.,       119P    103
0.05,0.,0.,0.;                                                       119P    104
126,2,2,0,0,0,0,-0.413713459382336,-0.413713459382336,               121P    105
-0.413713459382336,0.,0.,0.,1.,0.978681327917705,1.,                 121P    106
9.18591645064444,3.95208033341679,0.,8.60250909284018,               121P    107
0.385089403594334,0.,9.50229540973498,-3.11550669171639,0.,          121P    108
-0.413713459382336,0.,0.,0.,0.;                                      121P    109
126,1,1,0,0,1,0,-0.05,-0.05,0.,0.,1.,1.,9.18591645064444,            123P    110
3.9520803334168,0.5,9.18591645064444,3.9520803334168,0.,-0.05,       123P    111
0.,0.,0.,0.;                                                         123P    112
126,2,2,0,0,0,0,-0.413713459382336,-0.413713459382336,               125P    113
-0.413713459382336,0.,0.,0.,1.,0.978681327917705,1.,                 125P    114
9.18591645064444,3.95208033341679,0.5,8.60250909284018,              125P    115
0.385089403594334,0.5,9.50229540973498,-3.11550669171639,0.5,        125P    116
-0.413713459382336,0.,0.,0.,0.;                                      125P    117
126,2,2,0,0,0,0,-0.272656352950813,-0.272656352950813,               127P    118
-0.272656352950813,0.40629430990964,0.40629430990964,                127P    119
0.40629430990964,1.,0.942929505956601,1.,9.63058964076826,           127P    120
-2.6929060828642,0.5,10.5815804492648,0.708104552839684,0.5,         127P    121
9.18591645064445,3.95208033341679,0.5,-0.272656352950813,            127P    122
0.40629430990964,0.,0.,0.;                                           127P    123
126,2,2,0,0,0,0,-0.316824485868219,-0.316824485868219,               129P    124
-0.316824485868219,-0.272656352950813,-0.272656352950813,            129P    125
-0.272656352950813,1.,0.999756156914877,1.,9.50229540973498,         129P    126
-3.11550669171639,0.,9.57110965397086,-2.90562324679694,0.,          129P    127
9.63058964076826,-2.6929060828642,0.,-0.316824485868219,             129P    128
-0.272656352950813,0.,0.,0.;                                         129P    129
126,4,2,0,0,0,0,0.40629430990964,0.40629430990964,                   131P    130
0.40629430990964,1.5707963267949,1.5707963267949,                    131P    131
2.73529834368015,2.73529834368015,2.73529834368015,1.,               131P    132
0.835226925254951,1.,0.835226925254951,1.,9.18591645064445,          131P    133
3.95208033341679,0.,6.58390450106795,10.,0.,                         131P    134
6.12323399573677D-16,10.,0.,-6.58390450106795,10.,0.,                131P    135
-9.18591645064444,3.95208033341679,0.,0.40629430990964,              131P    136
2.73529834368015,0.,0.,0.;                                           131P    137
126,4,2,0,0,0,0,-2.82476816772157,-2.82476816772157,                 133P    138
-2.82476816772157,-1.5707963267949,-1.5707963267949,                 133P    139
-0.316824485868219,-0.316824485868219,-0.316824485868219,1.,         133P    140
0.809799564451488,1.,0.809799564451487,1.,-9.50229540973498,         133P    141
-3.11550669171639,0.,-7.24508448898625,-10.,0.,                      133P    142
6.12323399573677D-16,-10.,0.,7.24508448898625,-10.,0.,               133P    143
9.50229540973498,-3.11550669171639,0.,-2.82476816772157,             133P    144
-0.316824485868219,0.,0.,0.;                                         133P    145
126,8,2,0,1,0,0,-3.14159265358979,-3.14159265358979,                 135P    146
-3.14159265358979,-1.5707963267949,-1.5707963267949,0.,0.,           135P    147
1.5707963267949,1.5707963267949,3.14159265358979,                    135P    148
3.14159265358979,3.14159265358979,1.,0.707106781186548,1.,           135P    149
0.707106781186547,1.,0.707106781186547,1.,0.707106781186548,1.,      135P    150
3.00000004470348,-3.67394045218804D-16,15.,3.00000004470348,         135P    151
-3.00000004470348,15.,-1.83697022609402D-16,-3.00000004470348,       135P    152
15.,-3.00000004470348,-3.00000004470348,15.,-3.00000004470348,       135P    153
0.,15.,-3.00000004470348,3.00000004470348,15.,                       135P    154
-1.83697022609402D-16,3.00000004470348,15.,3.00000004470348,         135P    155
3.00000004470348,15.,3.00000004470348,3.67394045218804D-16,15.,      135P    156
-3.14159265358979,3.14159265358979,0.,0.,0.;                         135P    157
126,1,1,0,0,1,0,0.,0.,1.6666666418314,1.6666666418314,1.,1.,         137P    158
3.00000004470348,0.,15.,3.00000004470348,0.,10.,0.,                  137P    159
1.6666666418314,0.,0.,0.;                                            137P    160
126,8,2,0,1,0,0,-3.14159265358979,-3.14159265358979,                 139P    161
-3.14159265358979,-1.5707963267949,-1.5707963267949,0.,0.,           139P    162
1.5707963267949,1.5707963267949,3.14159265358979,                    139P    163
3.14159265358979,3.14159265358979,1.,0.707106781186548,1.,           139P    164
0.707106781186547,1.,0.707106781186547,1.,0.707106781186548,1.,      139P    165
3.00000004470348,-3.67394045218804D-16,10.,3.00000004470348,         139P    166
-3.00000004470348,10.,-1.83697022609402D-16,-3.00000004470348,       139P    167
10.,-3.00000004470348,-3.00000004470348,10.,-3.00000004470348,       139P    168
0.,10.,-3.00000004470348,3.00000004470348,10.,                       139P    169
-1.83697022609402D-16,3.00000004470348,10.,3.00000004470348,         139P    170
3.00000004470348,10.,3.00000004470348,3.67394045218804D-16,10.,      139P    171
-3.14159265358979,3.14159265358979,0.,0.,0.;                         139P    172
126,8,2,0,1,0,0,-3.14159265358979,-3.14159265358979,                 141P    173
-3.14159265358979,-1.5707963267949,-1.5707963267949,0.,0.,           141P    174
1.5707963267949,1.5707963267949,3.14159265358979,                    141P    175
3.14159265358979,3.14159265358979,1.,0.707106781186548,1.,           141P    176
0.707106781186548,1.,0.707106781186548,1.,0.707106781186548,1.,      141P    177
-9.,1.10218211923262D-15,15.,-9.,9.,15.,5.51091059616309D-16,9.,     141P    178
15.,9.,9.,15.,9.,0.,15.,9.,-9.,15.,5.51091059616309D-16,-9.,15.,     141P    179
-9.,-9.,15.,-9.,-1.10218211923262D-15,15.,-3.14159265358979,         141P    180
3.14159265358979,0.,0.,0.;                                           141P    181
126,2,2,0,0,0,0,-1.5707963267949,-1.5707963267949,                   143P    182
-1.5707963267949,0.,0.,0.,1.,0.707106781186548,1.,-9.,0.,15.,        143P    183
-10.,0.,15.,-10.,0.,14.,-1.5707963267949,0.,0.,0.,0.;                143P    184
126,8,2,0,1,0,0,-3.14159265358979,-3.14159265358979,                 145P    185
-3.14159265358979,-1.5707963267949,-1.5707963267949,0.,0.,           145P    186
1.5707963267949,1.5707963267949,3.14159265358979,                    145P    187
3.14159265358979,3.14159265358979,1.,0.707106781186548,1.,           145P    188
0.707106781186548,1.,0.707106781186548,1.,0.707106781186548,1.,      145P    189
-10.,-1.22464679914735D-15,14.,-10.,-10.,14.,                        145P    190
6.12323399573677D-16,-10.,14.,10.,-10.,14.,10.,0.,14.,10.,10.,       145P    191
14.,6.12323399573677D-16,10.,14.,-10.,10.,14.,-10.,                  145P    192
1.22464679914735D-15,14.,-3.14159265358979,3.14159265358979,0.,      145P    193
0.,0.;                                                               145P    194
126,1,1,0,0,1,0,-1.4,-1.4,-0.05,-0.05,1.,1.,-10.,0.,14.,-10.,0.,     147P    195
0.5,-1.4,-0.05,0.,0.,0.;                                             147P    196
126,2,2,0,0,0,0,-2.86893630063867,-2.86893630063867,                 149P    197
-2.86893630063867,-2.82476816772157,-2.82476816772157,               149P    198
-2.82476816772157,1.,0.99975615691488,1.,-9.63058964076742,          149P    199
-2.69290608286723,0.,-9.57110965397037,-2.90562324679844,0.,         149P    200
-9.50229540973498,-3.11550669171639,0.,-2.86893630063867,            149P    201
-2.82476816772157,0.,0.,0.;                                          149P    202
126,8,2,0,1,0,0,-3.14159265358979,-3.14159265358979,                 151P    203
-3.14159265358979,-1.5707963267949,-1.5707963267949,0.,0.,           151P    204
1.5707963267949,1.5707963267949,3.14159265358979,                    151P    205
3.14159265358979,3.14159265358979,1.,0.707106781186548,1.,           151P    206
0.707106781186548,1.,0.707106781186548,1.,0.707106781186548,1.,      151P    207
-1.00000001490116,-5.00000007450581,-15.,-1.00000001490116,          151P    208
-4.00000005960464,-15.,6.12323408698006D-17,-4.00000005960464,       151P    209
-15.,1.00000001490116,-4.00000005960464,-15.,1.00000001490116,       151P    210
-5.00000007450581,-15.,1.00000001490116,-6.00000008940697,-15.,      151P    211
6.12323408698006D-17,-6.00000008940697,-15.,-1.00000001490116,       151P    212
-6.00000008940697,-15.,-1.00000001490116,-5.00000007450581,-15.,     151P    213
-3.14159265358979,3.14159265358979,0.,0.,0.;                         151P    214
126,1,1,0,0,1,0,-14.9999997764826,-14.9999997764826,0.,0.,1.,1.,     153P    215
-1.00000001490116,-5.00000007450581,-15.,-1.00000001490116,          153P    216
-5.00000007450581,0.,-14.9999997764826,0.,0.,0.,0.;                  153P    217
126,8,2,0,1,0,0,-3.14159265358979,-3.14159265358979,                 155P    218
-3.14159265358979,-1.5707963267949,-1.5707963267949,0.,0.,           155P    219
1.5707963267949,1.5707963267949,3.14159265358979,                    155P    220
3.14159265358979,3.14159265358979,1.,0.707106781186548,1.,           155P    221
0.707106781186548,1.,0.707106781186548,1.,0.707106781186548,1.,      155P    222
-1.00000001490116,-5.00000007450581,0.,-1.00000001490116,            155P    223
-4.00000005960464,0.,6.12323408698006D-17,-4.00000005960464,0.,      155P    224
1.00000001490116,-4.00000005960464,0.,1.00000001490116,              155P    225
-5.00000007450581,0.,1.00000001490116,-6.00000008940697,0.,          155P    226
6.12323408698006D-17,-6.00000008940697,0.,-1.00000001490116,         155P    227
-6.00000008940697,0.,-1.00000001490116,-5.00000007450581,0.,         155P    228
-3.14159265358979,3.14159265358979,0.,0.,0.;                         155P    229
126,8,2,0,1,0,0,-3.14159265358979,-3.14159265358979,                 157P    230
-3.14159265358979,-1.5707963267949,-1.5707963267949,0.,0.,           157P    231
1.5707963267949,1.5707963267949,3.14159265358979,                    157P    232
3.14159265358979,3.14159265358979,1.,0.707106781186547,1.,           157P    233
0.707106781186547,1.,0.707106781186549,1.,0.707106781186549,1.,      157P    234
-1.,5.00000007450581,-15.,-1.,6.00000007450581,-15.,                 157P    235
6.12323399573677D-17,6.00000007450581,-15.,1.,6.00000007450581,      157P    236
-15.,1.,5.00000007450581,-15.,1.,4.00000007450581,-15.,              157P    237
6.12323399573677D-17,4.00000007450581,-15.,-1.,4.00000007450581,     157P    238
-15.,-1.,5.00000007450581,-15.,-3.14159265358979,                    157P    239
3.14159265358979,0.,0.,0.;                                           157P    240
126,1,1,0,0,1,0,-15.,-15.,0.,0.,1.,1.,-1.,5.00000007450581,-15.,     159P    241
-1.,5.00000007450581,0.,-15.,0.,0.,0.,0.;                            159P    242
126,8,2,0,1,0,0,-3.14159265358979,-3.14159265358979,                 161P    243
-3.14159265358979,-1.5707963267949,-1.5707963267949,0.,0.,           161P    244
1.5707963267949,1.5707963267949,3.14159265358979,                    161P    245
3.14159265358979,3.14159265358979,1.,0.707106781186547,1.,           161P    246
0.707106781186547,1.,0.707106781186549,1.,0.707106781186549,1.,      161P    247
-1.,5.00000007450581,0.,-1.,6.00000007450581,0.,                     161P    248
6.12323399573677D-17,6.00000007450581,0.,1.,6.00000007450581,0.,     161P    249
1.,5.00000007450581,0.,1.,4.00000007450581,0.,                       161P    250
6.12323399573677D-17,4.00000007450581,0.,-1.,4.00000007450581,       161P    251
0.,-1.,5.00000007450581,0.,-3.14159265358979,3.14159265358979,       161P    252
0.,0.,0.;                                                            161P    253
128,1,1,1,1,0,0,1,0,0,-0.00100000000035871,-0.00100000000035871,     163P    254
0.0451645428274631,0.0451645428274631,-0.001,-0.001,0.051,0.051,     163P    255
1.,1.,1.,1.,-9.49939049500432,-3.12507546752145,-0.01,               163P    256
-9.63349455549904,-2.68333730705871,-0.01,-9.49939049500432,         163P    257
-3.12507546752145,0.51,-9.63349455549904,-2.68333730705871,0.51,     163P    258
-0.00100000000035871,0.0451645428274631,-0.001,0.051;                163P    259
128,1,2,1,2,0,0,0,0,0,0.,0.,0.0290310093031598,                      165P    260
0.0290310093031598,-0.413713459382337,-0.413713459382337,            165P    261
-0.413713459382337,0.,0.,0.,1.,1.,0.9786813279177,                   165P    262
0.9786813279177,1.,1.,-9.50229540973498,-3.11550669171639,0.,        165P    263
-9.50229540973498,-3.11550669171639,0.5,-8.60250909284019,           165P    264
0.38508940359434,0.,-8.60250909284019,0.38508940359434,0.5,          165P    265
-9.18591645064444,3.9520803334168,0.,-9.18591645064444,              165P    266
3.9520803334168,0.5,0.,0.0290310093031598,-0.413713459382337,0.;     165P    267
128,1,1,1,1,0,0,1,0,0,-0.111154443345036,-0.111154443345036,         167P    268
0.0887526922974977,0.0887526922974977,-0.354379351256659,            167P    269
-0.354379351256659,0.354379351256659,0.354379351256659,1.,1.,1.,     167P    270
1.,-10.5915804492655,3.9620803334168,0.5,-8.59250909284018,          167P    271
3.9620803334168,0.5,-10.5915804492655,-3.12550669171639,0.5,         167P    272
-8.59250909284018,-3.12550669171639,0.5,-0.111154443345036,          167P    273
0.0887526922974977,-0.354379351256659,0.354379351256659;             167P    274
128,1,1,1,1,0,0,1,0,0,-0.001,-0.001,0.0451645428278269,              169P    275
0.0451645428278269,-0.001,-0.001,0.051,0.051,1.,1.,1.,1.,            169P    276
9.63349455549906,-2.68333730705866,-0.01,9.49939049500432,           169P    277
-3.12507546752145,-0.01,9.63349455549906,-2.68333730705866,0.51,     169P    278
9.49939049500432,-3.12507546752145,0.51,-0.001,                      169P    279
0.0451645428278269,-0.001,0.051;                                     169P    280
128,1,2,1,2,0,0,0,0,0,0.,0.,0.0290310093031597,                      171P    281
0.0290310093031597,-0.413713459382337,-0.413713459382337,            171P    282
-0.413713459382337,-3.2230894956475D-17,-3.2230894956475D-17,        171P    283
-3.2230894956475D-17,1.,1.,0.9786813279177,0.9786813279177,1.,       171P    284
1.,9.18591645064445,3.9520803334168,0.,9.18591645064445,             171P    285
3.9520803334168,0.5,8.60250909284019,0.38508940359434,0.,            171P    286
8.60250909284019,0.38508940359434,0.5,9.50229540973498,              171P    287
-3.11550669171639,0.,9.50229540973498,-3.11550669171639,0.5,0.,      171P    288
0.0290310093031597,-0.413713459382337,-3.2230894956475D-17;          171P    289
128,1,1,1,1,0,0,1,0,0,-0.0887526922974976,-0.0887526922974976,       173P    290
0.111154443344967,0.111154443344967,-0.354379351256659,              173P    291
-0.354379351256659,0.354379351256659,0.354379351256659,1.,1.,1.,     173P    292
1.,8.59250909284019,3.96208033341679,0.5,10.5915804492648,           173P    293
3.96208033341679,0.5,8.59250909284019,-3.12550669171639,0.5,         173P    294
10.5915804492648,-3.12550669171639,0.5,-0.0887526922974976,          173P    295
0.111154443344967,-0.354379351256659,0.354379351256659;              173P    296
128,1,1,1,1,0,0,1,0,0,0.949229540973498,0.949229540973498,           175P    297
0.964058964076827,0.964058964076827,-0.312550669171639,              175P    298
-0.312550669171639,-0.26829060828642,-0.26829060828642,1.,1.,1.,     175P    299
1.,9.64058964076827,-3.12550669171639,0.,9.49229540973498,           175P    300
-3.12550669171639,0.,9.64058964076827,-2.6829060828642,0.,           175P    301
9.49229540973498,-2.6829060828642,0.,0.949229540973498,              175P    302
0.964058964076827,-0.312550669171639,-0.26829060828642;              175P    303
128,1,1,1,1,0,0,1,0,0,-0.951229540973498,-0.951229540973498,         177P    304
0.951229540973498,0.951229540973498,-1.001,-1.001,1.001,1.001,       177P    305
1.,1.,1.,1.,9.51229540973498,-10.01,0.,-9.51229540973498,-10.01,     177P    306
0.,9.51229540973498,10.01,0.,-9.51229540973498,10.01,0.,             177P    307
-0.951229540973498,0.951229540973498,-1.001,1.001;                   177P    308
128,1,8,1,2,0,1,0,0,1,0.,0.,1.6666666418314,1.6666666418314,         179P    309
-3.14159265358979,-3.14159265358979,-3.14159265358979,               179P    310
-1.5707963267949,-1.5707963267949,0.,0.,1.5707963267949,             179P    311
1.5707963267949,3.14159265358979,3.14159265358979,                   179P    312
3.14159265358979,1.,1.,0.707106781186548,0.707106781186548,1.,       179P    313
1.,0.707106781186548,0.707106781186548,1.,1.,0.707106781186548,      179P    314
0.707106781186548,1.,1.,0.707106781186548,0.707106781186548,1.,      179P    315
1.,3.00000004470348,0.,15.,3.00000004470348,0.,10.,                  179P    316
3.00000004470348,-3.00000004470348,15.,3.00000004470348,             179P    317
-3.00000004470348,10.,0.,-3.00000004470348,15.,0.,                   179P    318
-3.00000004470348,10.,-3.00000004470348,-3.00000004470348,15.,       179P    319
-3.00000004470348,-3.00000004470348,10.,-3.00000004470348,0.,        179P    320
15.,-3.00000004470348,0.,10.,-3.00000004470348,3.00000004470348,     179P    321
15.,-3.00000004470348,3.00000004470348,10.,0.,3.00000004470348,      179P    322
15.,0.,3.00000004470348,10.,3.00000004470348,3.00000004470348,       179P    323
15.,3.00000004470348,3.00000004470348,10.,3.00000004470348,0.,       179P    324
15.,3.00000004470348,0.,10.,0.,1.6666666418314,                      179P    325
-3.14159265358979,3.14159265358979;                                  179P    326
128,1,1,1,1,0,0,1,0,0,-0.301000004470348,-0.301000004470348,         181P    327
0.301000004470348,0.301000004470348,-0.301000004470348,              181P    328
-0.301000004470348,0.301000004470348,0.301000004470348,1.,1.,1.,     181P    329
1.,3.01000004470348,3.01000004470348,10.,-3.01000004470348,          181P    330
3.01000004470348,10.,3.01000004470348,-3.01000004470348,10.,         181P    331
-3.01000004470348,-3.01000004470348,10.,-0.301000004470348,          181P    332
0.301000004470348,-0.301000004470348,0.301000004470348;              181P    333
128,2,8,2,2,0,1,0,0,1,0.,0.,0.,1.5707963267949,1.5707963267949,      183P    334
1.5707963267949,-3.14159265358979,-3.14159265358979,                 183P    335
-3.14159265358979,-1.5707963267949,-1.5707963267949,0.,0.,           183P    336
1.5707963267949,1.5707963267949,3.14159265358979,                    183P    337
3.14159265358979,3.14159265358979,1.,0.707106781186548,1.,           183P    338
0.707106781186548,0.5,0.707106781186548,1.,0.707106781186548,1.,     183P    339
0.707106781186548,0.5,0.707106781186548,1.,0.707106781186548,1.,     183P    340
0.707106781186548,0.5,0.707106781186548,1.,0.707106781186548,1.,     183P    341
0.707106781186548,0.5,0.707106781186548,1.,0.707106781186548,1.,     183P    342
-9.,0.,15.,-10.,0.,15.,-10.,0.,14.,-9.,-9.,15.,-10.,-10.,15.,        183P    343
-10.,-10.,14.,0.,-9.,15.,0.,-10.,15.,0.,-10.,14.,9.,-9.,15.,10.,     183P    344
-10.,15.,10.,-10.,14.,9.,0.,15.,10.,0.,15.,10.,0.,14.,9.,9.,15.,     183P    345
10.,10.,15.,10.,10.,14.,0.,9.,15.,0.,10.,15.,0.,10.,14.,-9.,9.,      183P    346
15.,-10.,10.,15.,-10.,10.,14.,-9.,0.,15.,-10.,0.,15.,-10.,0.,        183P    347
14.,0.,1.5707963267949,-3.14159265358979,3.14159265358979;           183P    348
128,1,8,1,2,0,1,0,0,1,0.,0.,1.4,1.4,-3.14159265358979,               185P    349
-3.14159265358979,-3.14159265358979,-1.5707963267949,                185P    350
-1.5707963267949,0.,0.,1.5707963267949,1.5707963267949,              185P    351
3.14159265358979,3.14159265358979,3.14159265358979,1.,1.,            185P    352
0.707106781186548,0.707106781186548,1.,1.,0.707106781186548,         185P    353
0.707106781186548,1.,1.,0.707106781186548,0.707106781186548,1.,      185P    354
1.,0.707106781186548,0.707106781186548,1.,1.,-10.,0.,14.,-10.,       185P    355
0.,0.,-10.,-10.,14.,-10.,-10.,0.,0.,-10.,14.,0.,-10.,0.,10.,         185P    356
-10.,14.,10.,-10.,0.,10.,0.,14.,10.,0.,0.,10.,10.,14.,10.,10.,       185P    357
0.,0.,10.,14.,0.,10.,0.,-10.,10.,14.,-10.,10.,0.,-10.,0.,14.,        185P    358
-10.,0.,0.,0.,1.4,-3.14159265358979,3.14159265358979;                185P    359
128,1,1,1,1,0,0,1,0,0,-0.901,-0.901,0.901,0.901,-0.901,-0.901,       187P    360
0.901,0.901,1.,1.,1.,1.,-9.01,-9.01,15.,9.01,-9.01,15.,-9.01,        187P    361
9.01,15.,9.01,9.01,15.,-0.901,0.901,-0.901,0.901;                    187P    362
128,1,1,1,1,0,0,1,0,0,-0.964058964076742,-0.964058964076742,         189P    363
-0.949229540973498,-0.949229540973498,-0.312550669171639,            189P    364
-0.312550669171639,-0.268290608286721,-0.268290608286721,1.,1.,      189P    365
1.,1.,-9.49229540973498,-3.12550669171639,0.,-9.64058964076742,      189P    366
-3.12550669171639,0.,-9.49229540973498,-2.68290608286721,0.,         189P    367
-9.64058964076742,-2.68290608286721,0.,-0.964058964076742,           189P    368
-0.949229540973498,-0.312550669171639,-0.268290608286721;            189P    369
128,1,8,1,2,0,1,0,0,1,0.,0.,14.9999997764826,14.9999997764826,       191P    370
-3.14159265358979,-3.14159265358979,-3.14159265358979,               191P    371
-1.5707963267949,-1.5707963267949,0.,0.,1.5707963267949,             191P    372
1.5707963267949,3.14159265358979,3.14159265358979,                   191P    373
3.14159265358979,1.,1.,0.707106781186548,0.707106781186548,1.,       191P    374
1.,0.707106781186548,0.707106781186548,1.,1.,0.707106781186548,      191P    375
0.707106781186548,1.,1.,0.707106781186548,0.707106781186548,1.,      191P    376
1.,-1.00000001490116,-5.00000007450581,-15.,-1.00000001490116,       191P    377
-5.00000007450581,0.,-1.00000001490116,-4.00000005960464,-15.,       191P    378
-1.00000001490116,-4.00000005960464,0.,0.,-4.00000005960464,         191P    379
-15.,0.,-4.00000005960464,0.,1.00000001490116,-4.00000005960464,     191P    380
-15.,1.00000001490116,-4.00000005960464,0.,1.00000001490116,         191P    381
-5.00000007450581,-15.,1.00000001490116,-5.00000007450581,0.,        191P    382
1.00000001490116,-6.00000008940697,-15.,1.00000001490116,            191P    383
-6.00000008940697,0.,0.,-6.00000008940697,-15.,0.,                   191P    384
-6.00000008940697,0.,-1.00000001490116,-6.00000008940697,-15.,       191P    385
-1.00000001490116,-6.00000008940697,0.,-1.00000001490116,            191P    386
-5.00000007450581,-15.,-1.00000001490116,-5.00000007450581,0.,       191P    387
0.,14.9999997764826,-3.14159265358979,3.14159265358979;              191P    388
128,1,1,1,1,0,0,1,0,0,-0.101000001490116,-0.101000001490116,         193P    389
0.101000001490116,0.101000001490116,-0.101000001490116,              193P    390
-0.101000001490116,0.101000001490116,0.101000001490116,1.,1.,1.,     193P    391
1.,-1.01000001490116,-3.99000005960464,-15.,1.01000001490116,        193P    392
-3.99000005960464,-15.,-1.01000001490116,-6.01000008940697,-15.,     193P    393
1.01000001490116,-6.01000008940697,-15.,-0.101000001490116,          193P    394
0.101000001490116,-0.101000001490116,0.101000001490116;              193P    395
128,1,1,1,1,0,0,1,0,0,-0.101000001490116,-0.101000001490116,         195P    396
0.101000001490116,0.101000001490116,-0.101000001490116,              195P    397
-0.101000001490116,0.101000001490116,0.101000001490116,1.,1.,1.,     195P    398
1.,1.01000001490116,-3.99000005960464,0.,-1.01000001490116,          195P    399
-3.99000005960464,0.,1.01000001490116,-6.01000008940697,0.,          195P    400
-1.01000001490116,-6.01000008940697,0.,-0.101000001490116,           195P    401
0.101000001490116,-0.101000001490116,0.101000001490116;              195P    402
128,1,8,1,2,0,1,0,0,1,0.,0.,15.,15.,-3.14159265358979,               197P    403
-3.14159265358979,-3.14159265358979,-1.5707963267949,                197P    404
-1.5707963267949,0.,0.,1.5707963267949,1.5707963267949,              197P    405
3.14159265358979,3.14159265358979,3.14159265358979,1.,1.,            197P    406
0.707106781186548,0.707106781186548,1.,1.,0.707106781186548,         197P    407
0.707106781186548,1.,1.,0.707106781186548,0.707106781186548,1.,      197P    408
1.,0.707106781186548,0.707106781186548,1.,1.,-1.,                    197P    409
5.00000007450581,-15.,-1.,5.00000007450581,0.,-1.,                   197P    410
6.00000007450581,-15.,-1.,6.00000007450581,0.,0.,                    197P    411
6.00000007450581,-15.,0.,6.00000007450581,0.,1.,                     197P    412
6.00000007450581,-15.,1.,6.00000007450581,0.,1.,                     197P    413
5.00000007450581,-15.,1.,5.00000007450581,0.,1.,                     197P    414
4.00000007450581,-15.,1.,4.00000007450581,0.,0.,                     197P    415
4.00000007450581,-15.,0.,4.00000007450581,0.,-1.,                    197P    416
4.00000007450581,-15.,-1.,4.00000007450581,0.,-1.,                   197P    417
5.00000007450581,-15.,-1.,5.00000007450581,0.,0.,15.,                197P    418
-3.14159265358979,3.14159265358979;                                  197P    419
128,1,1,1,1,0,0,1,0,0,-0.101,-0.101,0.101,0.101,-0.101,-0.101,       199P    420
0.101,0.101,1.,1.,1.,1.,-1.01,6.01000007450581,-15.,1.01,            199P    421
6.01000007450581,-15.,-1.01,3.99000007450581,-15.,1.01,              199P    422
3.99000007450581,-15.,-0.101,0.101,-0.101,0.101;                     199P    423
128,1,1,1,1,0,0,1,0,0,-0.101,-0.101,0.101,0.101,-0.101,-0.101,       201P    424
0.101,0.101,1.,1.,1.,1.,1.01,6.01000007450581,0.,-1.01,              201P    425
6.01000007450581,0.,1.01,3.99000007450581,0.,-1.01,                  201P    426
3.99000007450581,0.,-0.101,0.101,-0.101,0.101;                       201P    427
502,17,-9.63058964076734,-2.69290608286721,0.,-9.50229540973498,     203P    428
-3.11550669171639,0.,-9.63058964076734,-2.69290608286721,0.5,        203P    429
-9.50229540973498,-3.11550669171639,0.5,-9.18591645064444,           203P    430
3.9520803334168,0.,-9.18591645064444,3.9520803334168,0.5,-10.,       203P    431
0.,0.5,9.50229540973498,-3.11550669171639,0.,9.63058964076825,       203P    432
-2.6929060828642,0.,9.50229540973498,-3.11550669171639,0.5,          203P    433
9.63058964076825,-2.6929060828642,0.5,9.18591645064444,              203P    434
3.95208033341679,0.,9.18591645064444,3.95208033341679,0.5,           203P    435
3.00000004470348,3.67394045218804D-16,15.,3.00000004470348,          203P    436
3.67394045218804D-16,10.,-9.,1.10218211923262D-15,15.,-10.,          203P    437
-1.22464679914735D-15,14.;                                           203P    438
502,2,-1.00000001490116,-5.00000007450581,-15.,                      205P    439
-1.00000001490116,-5.00000007450581,0.;                              205P    440
502,2,-1.,5.00000007450581,-15.,-1.,5.00000007450581,0.;             207P    441
504,28,95,203,1,203,2,97,203,3,203,1,99,203,3,203,4,101,203,2,       209P    442
203,4,103,203,2,203,5,105,203,4,203,6,107,203,5,203,6,109,203,7,     209P    443
203,3,111,203,6,203,7,113,203,8,203,9,115,203,10,203,8,117,203,      209P    444
10,203,11,119,203,9,203,11,121,203,12,203,8,123,203,13,203,12,       209P    445
125,203,13,203,10,127,203,11,203,13,129,203,8,203,9,131,203,12,      209P    446
203,5,133,203,2,203,8,135,203,14,203,14,137,203,14,203,15,139,       209P    447
203,15,203,15,141,203,16,203,16,143,203,16,203,17,145,203,17,        209P    448
203,17,147,203,17,203,7,149,203,1,203,2;                             209P    449
504,3,151,205,1,205,1,153,205,1,205,2,155,205,2,205,2;               211P    450
504,3,157,207,1,207,1,159,207,1,207,2,161,207,2,207,2;               213P    451
406,1,5HBody1;                                                       215P    452
406,1,5HBody2;                                                       217P    453
406,1,5HBody3;                                                       219P    454
314,9.80392156862745,9.80392156862745,9.80392156862745,24HPaint      221P    455
- Metallic (Black);                                                  221P    456
314,96.4705882352941,96.4705882352941,95.2941176470588,29HPaint      223P    457
- Enamel Glossy (White);                                             223P    458
314,62.7450980392157,62.7450980392157,62.7450980392157,13HSteel      225P    459
- Satin;                                                             225P    460
S      1G      3D    226P    460                                        T      1
